<?xml version="1.0" encoding="utf-8"?>
<!-- Generator: Adobe Illustrator 19.2.1, SVG Export Plug-In . SVG Version: 6.00 Build 0)  -->
<svg version="1.1" id="Layer_2" xmlns="http://www.w3.org/2000/svg" xmlns:xlink="http://www.w3.org/1999/xlink" x="0px" y="0px"
	 viewBox="0 0 80.3 80.3" style="enable-background:new 0 0 80.3 80.3;" xml:space="preserve">
<style type="text/css">
	.st0{fill:#EB6A5C;}
	.st1{fill:#552F2F;}
	.st2{fill:#2384AB;}
	.st3{fill:#FFFFFF;}
	.st4{fill:#0C2C48;}
	.st5{fill:#F6A09C;}
	.st6{fill:#61C3AF;}
	.st7{fill:#2F4555;}
	.st8{fill:#55AB99;}
	.st9{fill:#ED6B5A;}
	.st10{fill:#2484AD;}
	.st11{fill:#FCA886;}
	.st12{fill:#F1CC4B;}
	.st13{fill:#6EB9E0;}
	.st14{fill:#50646F;}
	.st15{fill:#EDC84A;}
	.st16{fill:#E7543A;}
	.st17{fill:#F38D80;}
	.st18{fill:#F2F2F2;}
	.st19{fill:#81CAFF;}
	.st20{clip-path:url(#SVGID_4_);fill:#55AB99;}
	.st21{fill:#BABFC5;}
	.st22{fill:#BBC2C7;}
</style>
<g>
	<circle class="st14" cx="40.2" cy="40.2" r="40.2"/>
	<g>
		<path class="st15" d="M28.2,37.9l34.1-0.7c2.1,0,5.3,1.3,5.3,3c0,1.7-3.3,3-5.3,3l-34.1-0.7V37.9z"/>
		<g>
			<g>
				<path class="st15" d="M49.4,42.7C48.9,43.5,40,59.2,40,59.2l-6.6,0.5l5.5-17.4L49.4,42.7z"/>
				<path class="st15" d="M40.6,49.3c-1.3,0-2.3,1-2.3,2.3l0,0c0,1.3,1,2.3,2.3,2.3h5.6c1.3,0,2.3-1,2.3-2.3l0,0
					c0-1.3-1-2.3-2.3-2.3H40.6z"/>
			</g>
			<g>
				<path class="st15" d="M49.4,37.6C48.9,36.8,40,21.1,40,21.1l-6.6-0.6l5.5,17.4L49.4,37.6z"/>
				<path class="st15" d="M40.6,31.1c-1.3,0-2.3-1-2.3-2.3l0,0c0-1.3,1-2.3,2.3-2.3h5.6c1.3,0,2.3,1,2.3,2.3l0,0
					c0,1.3-1,2.3-2.3,2.3H40.6z"/>
			</g>
		</g>
		<path class="st15" d="M20.6,39.6c-0.3,0-0.6,0.3-0.6,0.6l0,0c0,0.3,0.3,0.6,0.6,0.6h10.3c0.3,0,0.6-0.3,0.6-0.6l0,0
			c0-0.3-0.3-0.6-0.6-0.6H20.6z"/>
		<g>
			<path class="st15" d="M31.8,40.4c-0.3,0.2-7.4,5.7-7.4,5.7l-5.1,0.1l4.4-5.9L31.8,40.4z"/>
			<path class="st15" d="M31.3,39.9C31,39.7,24,34.2,24,34.2l-5.1-0.1l4.4,5.9L31.3,39.9z"/>
		</g>
	</g>
	<g>
		<rect x="13.9" y="65" class="st3" width="54" height="2.7"/>
		<polyline class="st3" points="66.6,15.3 66.6,12.7 12.6,12.7 12.6,15.3 		"/>
	</g>
	<g>
		<rect x="8.8" y="57.3" class="st3" width="6.4" height="1.8"/>
		<rect x="8.8" y="50" class="st3" width="6.4" height="1.8"/>
		<rect x="8.8" y="42.7" class="st3" width="6.4" height="1.8"/>
		<rect x="8.8" y="35.4" class="st3" width="6.4" height="1.8"/>
		<rect x="8.8" y="28.1" class="st3" width="6.4" height="1.8"/>
		<rect x="8.8" y="20.8" class="st3" width="6.4" height="1.8"/>
	</g>
</g>
</svg>
